<svg id="圖層_1" data-name="圖層 1" xmlns="http://www.w3.org/2000/svg" viewBox="0 0 132.38 281.39"><defs><style>.cls-1{fill:#ffcf48;}</style></defs><title>guide symbol</title><path class="cls-1" d="M1303.1,1143.21a10.47,10.47,0,0,1-7.44-3.09l-55.57-55.8A10.5,10.5,0,0,1,1255,1069.5l48.16,48.36,48.37-48.16a10.5,10.5,0,0,1,14.82,14.88l-55.81,55.57A10.47,10.47,0,0,1,1303.1,1143.21Z" transform="translate(-1237.03 -1066.41)"/><path class="cls-1" d="M1303.1,1245.5a10.47,10.47,0,0,1-7.44-3.09l-55.57-55.8a10.5,10.5,0,0,1,14.88-14.82l48.16,48.37L1351.5,1172a10.5,10.5,0,0,1,14.82,14.89l-55.81,55.57A10.46,10.46,0,0,1,1303.1,1245.5Z" transform="translate(-1237.03 -1066.41)"/><path class="cls-1" d="M1303.1,1347.8a10.47,10.47,0,0,1-7.44-3.09l-55.57-55.81a10.5,10.5,0,0,1,14.88-14.82l48.16,48.37,48.37-48.16a10.5,10.5,0,0,1,14.82,14.88l-55.81,55.57A10.47,10.47,0,0,1,1303.1,1347.8Z" transform="translate(-1237.03 -1066.41)"/></svg>